<svg width="41" height="40" viewBox="0 0 41 40" fill="none" xmlns="http://www.w3.org/2000/svg">
<path d="M27.1401 3.68218C26.4568 2.99885 25.2734 3.46552 25.2734 4.41552V10.2322C25.2734 12.6655 27.3401 14.6822 29.8568 14.6822C31.4401 14.6988 33.6401 14.6988 35.5234 14.6988C36.4734 14.6988 36.9734 13.5822 36.3068 12.9155C33.9068 10.4988 29.6068 6.14885 27.1401 3.68218Z" fill="#2B2E8C"/>
<path d="M34.9688 16.984H30.1521C26.2021 16.984 22.9854 13.7673 22.9854 9.81732V5.00065C22.9854 4.08398 22.2354 3.33398 21.3188 3.33398H14.2521C9.11875 3.33398 4.96875 6.66732 4.96875 12.6173V27.384C4.96875 33.334 9.11875 36.6673 14.2521 36.6673H27.3521C32.4854 36.6673 36.6354 33.334 36.6354 27.384V18.6507C36.6354 17.734 35.8854 16.984 34.9688 16.984ZM19.9688 29.584H13.3021C12.6187 29.584 12.0521 29.0173 12.0521 28.334C12.0521 27.6507 12.6187 27.084 13.3021 27.084H19.9688C20.6521 27.084 21.2188 27.6507 21.2188 28.334C21.2188 29.0173 20.6521 29.584 19.9688 29.584ZM23.3021 22.9173H13.3021C12.6187 22.9173 12.0521 22.3507 12.0521 21.6673C12.0521 20.984 12.6187 20.4173 13.3021 20.4173H23.3021C23.9854 20.4173 24.5521 20.984 24.5521 21.6673C24.5521 22.3507 23.9854 22.9173 23.3021 22.9173Z" fill="#2B2E8C"/>
</svg>
