<svg width="40" height="40" viewBox="0 0 40 40" fill="none" xmlns="http://www.w3.org/2000/svg">
<path d="M26.9859 3.33301H13.0193C6.9526 3.33301 3.33594 6.94967 3.33594 13.0163V26.9663C3.33594 33.0497 6.9526 36.6663 13.0193 36.6663H26.9693C33.0359 36.6663 36.6526 33.0497 36.6526 26.983V13.0163C36.6693 6.94967 33.0526 3.33301 26.9859 3.33301ZM16.5193 26.983C16.5193 28.0497 15.6526 28.9163 14.5693 28.9163C13.5026 28.9163 12.6359 28.0497 12.6359 26.983V21.5497C12.6359 20.483 13.5026 19.6163 14.5693 19.6163C15.6526 19.6163 16.5193 20.483 16.5193 21.5497V26.983ZM27.3693 26.983C27.3693 28.0497 26.5026 28.9163 25.4359 28.9163C24.3526 28.9163 23.4859 28.0497 23.4859 26.983V13.0163C23.4859 11.9497 24.3526 11.083 25.4359 11.083C26.5026 11.083 27.3693 11.9497 27.3693 13.0163V26.983Z" fill="#2B2E8C"/>
</svg>
