<svg width="40" height="40" viewBox="0 0 40 40" fill="none" xmlns="http://www.w3.org/2000/svg">
<path d="M28.0026 15H21.2526V22.4L24.7026 18.95C24.9526 18.7 25.2693 18.5833 25.5859 18.5833C25.9026 18.5833 26.2193 18.7 26.4693 18.95C26.9526 19.4333 26.9526 20.2333 26.4693 20.7167L20.8859 26.3C20.4026 26.7833 19.6026 26.7833 19.1193 26.3L13.5359 20.7167C13.0526 20.2333 13.0526 19.4333 13.5359 18.95C14.0193 18.4667 14.8193 18.4667 15.3026 18.95L18.7526 22.4V15H12.0026C6.66927 15 3.33594 18.3333 3.33594 23.6667V27.9833C3.33594 33.3333 6.66927 36.6667 12.0026 36.6667H27.9859C33.3193 36.6667 36.6526 33.3333 36.6526 28V23.6667C36.6693 18.3333 33.3359 15 28.0026 15Z" fill="#2B2E8C"/>
<path d="M21.25 4.58301C21.25 3.89967 20.6833 3.33301 20 3.33301C19.3167 3.33301 18.75 3.89967 18.75 4.58301V14.9997H21.25V4.58301Z" fill="#2B2E8C"/>
</svg>
