<svg width="56" height="56" viewBox="0 0 56 56" fill="none" xmlns="http://www.w3.org/2000/svg">
<rect x="5" y="5" width="45" height="44" rx="14" fill="#FFCF00"/>
<path d="M37.8678 4.66699H18.3145C9.82114 4.66699 4.75781 9.73033 4.75781 18.2236V37.777C4.75781 46.2704 9.82114 51.3336 18.3145 51.3336H37.8678C46.3611 51.3336 51.4245 46.2704 51.4245 37.777V18.2236C51.4245 9.73033 46.3611 4.66699 37.8678 4.66699ZM18.1745 31.7336C18.1745 32.6904 17.3811 33.4836 16.4245 33.4836C15.4678 33.4836 14.6745 32.6904 14.6745 31.7336V24.267C14.6745 23.3104 15.4678 22.517 16.4245 22.517C17.3811 22.517 18.1745 23.3104 18.1745 24.267V31.7336ZM29.8411 35.7936C29.8411 36.7504 29.0478 37.5436 28.0911 37.5436C27.1345 37.5436 26.3411 36.7504 26.3411 35.7936V20.207C26.3411 19.2504 27.1345 18.457 28.0911 18.457C29.0478 18.457 29.8411 19.2504 29.8411 20.207V35.7936ZM41.5078 31.7336C41.5078 32.6904 40.7145 33.4836 39.7578 33.4836C38.8011 33.4836 38.0078 32.6904 38.0078 31.7336V24.267C38.0078 23.3104 38.8011 22.517 39.7578 22.517C40.7145 22.517 41.5078 23.3104 41.5078 24.267V31.7336Z" fill="#2B2E8C"/>
</svg>
