<svg width="57" height="56" viewBox="0 0 57 56" fill="none" xmlns="http://www.w3.org/2000/svg">
<rect x="5.34375" y="5" width="45" height="44" rx="14" fill="#FFCF00"/>
<path d="M37.6426 5.00006H18.5682C10.283 5.00006 5.34375 9.93935 5.34375 18.2246V37.2761C5.34375 45.5841 10.283 50.5234 18.5682 50.5234H37.6198C45.9051 50.5234 50.8444 45.5841 50.8444 37.2988V18.2246C50.8671 9.93935 45.9279 5.00006 37.6426 5.00006ZM39.2131 26.692C39.2131 27.5797 38.5075 28.2852 37.6198 28.2852C36.7321 28.2852 36.0265 27.5797 36.0265 26.692V26.2823L29.8353 32.4734C29.4938 32.8148 29.0387 32.9742 28.5607 32.9286C28.0827 32.8831 27.6502 32.6328 27.3998 32.2231L25.0781 28.7632L19.6608 34.1805C19.3422 34.4991 18.9553 34.6357 18.5456 34.6357C18.1359 34.6357 17.7262 34.4765 17.4302 34.1805C16.8156 33.5659 16.8156 32.5645 17.4302 31.9271L24.2132 25.1441C24.5547 24.8027 25.0098 24.6434 25.4878 24.6889C25.9658 24.7344 26.3984 24.9848 26.6487 25.3946L28.9704 28.8543L33.7731 24.0515H33.3634C32.4757 24.0515 31.7701 23.346 31.7701 22.4583C31.7701 21.5706 32.4757 20.8649 33.3634 20.8649H37.5971C37.8019 20.8649 38.0068 20.9104 38.2117 20.9787C38.5986 21.1381 38.9172 21.4567 39.0766 21.8437C39.1676 22.0486 39.1903 22.2534 39.1903 22.4583V26.692H39.2131Z" fill="#2B2E8C"/>
</svg>
