<svg width="57" height="56" viewBox="0 0 57 56" fill="none" xmlns="http://www.w3.org/2000/svg">
<rect x="5.33594" y="5" width="45" height="44" rx="14" fill="#FFCF00"/>
<path d="M37.7363 5.55273H18.662C10.3768 5.55273 5.4375 10.492 5.4375 18.7772V37.8287C5.4375 46.1368 10.3768 51.076 18.662 51.076H37.7135C45.9988 51.076 50.938 46.1368 50.938 37.8515V18.7772C50.9608 10.492 46.0215 5.55273 37.7363 5.55273ZM23.442 37.8515C23.442 39.3083 22.2583 40.4918 20.7788 40.4918C19.3221 40.4918 18.1385 39.3083 18.1385 37.8515V30.4313C18.1385 28.9745 19.3221 27.7908 20.7788 27.7908C22.2583 27.7908 23.442 28.9745 23.442 30.4313V37.8515ZM38.2598 37.8515C38.2598 39.3083 37.0762 40.4918 35.6195 40.4918C34.1399 40.4918 32.9564 39.3083 32.9564 37.8515V18.7772C32.9564 17.3205 34.1399 16.1369 35.6195 16.1369C37.0762 16.1369 38.2598 17.3205 38.2598 18.7772V37.8515Z" fill="#2B2E8C"/>
</svg>
