<svg width="41" height="40" viewBox="0 0 41 40" fill="none" xmlns="http://www.w3.org/2000/svg">
<path d="M26.9036 3.33301H13.5703C6.90365 3.33301 3.57031 6.66634 3.57031 13.333V34.9997C3.57031 35.9163 4.32031 36.6663 5.23698 36.6663H26.9036C33.5703 36.6663 36.9036 33.333 36.9036 26.6663V13.333C36.9036 6.66634 33.5703 3.33301 26.9036 3.33301ZM18.7536 27.7663C18.337 28.183 17.5703 28.5663 17.0036 28.6497L13.537 29.133C13.4036 29.1497 13.2703 29.1663 13.1536 29.1663C12.5703 29.1663 12.037 28.9663 11.6536 28.583C11.187 28.1163 10.987 27.433 11.1036 26.6997L11.587 23.233C11.6703 22.6663 12.0536 21.883 12.4703 21.483L18.7536 15.1997C18.8536 15.4997 18.987 15.7997 19.137 16.133C19.287 16.433 19.437 16.733 19.6036 17.0163C19.737 17.2497 19.887 17.483 20.0203 17.6497C20.187 17.8997 20.3536 18.1163 20.4703 18.233C20.537 18.333 20.6036 18.3997 20.6203 18.433C20.987 18.8497 21.3703 19.2497 21.737 19.5497C21.837 19.6497 21.9036 19.6997 21.9203 19.7163C22.137 19.883 22.337 20.0663 22.537 20.183C22.7536 20.3497 22.987 20.4997 23.2203 20.633C23.5036 20.7997 23.8036 20.9663 24.1203 21.1163C24.437 21.2663 24.737 21.383 25.037 21.483L18.7536 27.7663ZM27.8203 18.7163L26.5203 20.0163C26.437 20.0997 26.3203 20.1497 26.2036 20.1497C26.1703 20.1497 26.1036 20.1497 26.0703 20.133C23.2036 19.3163 20.9203 17.033 20.1036 14.1663C20.0536 14.0163 20.1036 13.8497 20.2203 13.733L21.537 12.4163C23.687 10.2663 25.7203 10.3163 27.8203 12.4163C28.887 13.483 29.4203 14.5163 29.4036 15.583C29.4036 16.633 28.887 17.6497 27.8203 18.7163Z" fill="#2B2E8C"/>
</svg>
