<svg width="40" height="40" viewBox="0 0 40 40" fill="none" xmlns="http://www.w3.org/2000/svg">
<path fill-rule="evenodd" clip-rule="evenodd" d="M7.07812 11.2497C7.07812 6.88301 10.6281 3.33301 14.9948 3.33301C19.3615 3.33301 22.9115 6.88301 22.9115 11.2497C22.8948 15.533 19.5448 18.9997 15.2781 19.1497H15.2448H15.1615C15.0615 19.133 14.9281 19.133 14.7948 19.1497C10.4281 18.9997 7.07812 15.533 7.07812 11.2497ZM6.54115 23.5828C11.2245 20.4828 18.8078 20.4828 23.4578 23.5828C25.5578 24.9828 26.7078 26.8828 26.7245 28.9328C26.7245 30.9995 25.5578 32.8995 23.4578 34.3161C21.1245 35.8828 18.0578 36.6661 14.9911 36.6661C11.9245 36.6661 8.85781 35.8828 6.52448 34.3161C4.42448 32.9161 3.25781 31.0161 3.25781 28.9661C3.25781 26.9161 4.42448 24.9995 6.54115 23.5828ZM33.3156 12.2332C33.5823 15.4665 31.2823 18.2998 28.099 18.6832H28.0656H28.0156C27.9156 18.6832 27.8156 18.6832 27.7323 18.7165C26.1156 18.7998 24.6323 18.2832 23.5156 17.3332C25.2323 15.7998 26.2156 13.4998 26.0156 10.9998C25.899 9.64984 25.4323 8.41651 24.7323 7.36651C25.3656 7.04984 26.099 6.84984 26.849 6.78317C30.1156 6.49984 33.0323 8.93317 33.3156 12.2332ZM33.7615 31.616C35.4948 30.666 36.5281 29.266 36.6615 27.6494C36.8115 26.0494 36.0281 24.4994 34.4948 23.266C31.6448 20.966 27.0115 20.2494 23.3281 21.316C24.7448 21.8327 26.0448 22.5327 27.1615 23.416C29.1281 24.9994 30.1115 26.9827 29.9448 29.0494C29.8115 30.4827 29.1115 31.8327 27.9115 32.916C29.9948 32.966 32.0948 32.5327 33.7615 31.616Z" fill="#2B2E8C"/>
</svg>
