<svg width="57" height="56" viewBox="0 0 57 56" fill="none" xmlns="http://www.w3.org/2000/svg">
<rect x="10.6719" y="28" width="40" height="21" rx="10.5" fill="#FFCF00"/>
<path d="M28.7609 4.71433L23.2746 17.485H17.7884C16.8779 17.485 15.9901 17.5533 15.125 17.7355L17.4015 12.272L17.4926 12.0672L17.6292 11.7029C17.6974 11.5436 17.7429 11.407 17.8112 11.2932C20.4518 5.16961 23.4112 3.25741 28.7609 4.71433Z" fill="#FFCF00"/>
<path d="M44.2275 18.0995L44.1818 18.0769C42.816 17.6898 41.4275 17.4849 40.016 17.4849H25.7656L30.8876 5.57928L30.9559 5.41992C31.2745 5.53375 31.616 5.69309 31.9575 5.80692L36.9884 7.924C39.7884 9.08497 41.7461 10.2915 42.9526 11.7484C43.1574 12.0216 43.3397 12.272 43.5217 12.5679C43.7266 12.8866 43.886 13.2053 43.977 13.5467C44.0681 13.7516 44.1364 13.9337 44.1818 14.1386C44.5233 15.2995 44.5461 16.6199 44.2275 18.0995Z" fill="#FFCF00"/>
<path d="M43.2242 21.3548C42.1998 21.0588 41.1298 20.8994 40.0143 20.8994H17.7965C16.2484 20.8994 14.7916 21.1954 13.4257 21.7872C9.46473 23.4945 6.6875 27.4328 6.6875 32.0084V36.4475C6.6875 36.9938 6.73302 37.5173 6.80132 38.0637C7.30213 45.3027 11.172 49.1726 18.4111 49.6506C18.9346 49.7189 19.4583 49.7645 20.0273 49.7645H37.7834C46.2062 49.7645 50.6452 45.7579 51.0777 37.7905C51.1005 37.358 51.1233 36.9027 51.1233 36.4475V32.0084C51.1233 26.9775 47.777 22.7433 43.2242 21.3548ZM34.5965 37.8133H23.2144C22.281 37.8133 21.5071 37.0393 21.5071 36.106C21.5071 35.1726 22.281 34.3987 23.2144 34.3987H34.5965C35.5298 34.3987 36.3038 35.1726 36.3038 36.106C36.3038 37.0393 35.5298 37.8133 34.5965 37.8133Z" fill="#2B2E8C"/>
</svg>
